<svg width="20" height="20" viewBox="0 0 20 20" fill="none" xmlns="http://www.w3.org/2000/svg">
    <path d="M3.81249 3.81249C4.0469 3.57815 4.36478 3.4465 4.69624 3.4465C5.02769 3.4465 5.34558 3.57815 5.57999 3.81249L9.99999 8.23249L14.42 3.81249C14.6557 3.58479 14.9715 3.4588 15.2992 3.46164C15.627 3.46449 15.9405 3.59595 16.1723 3.82771C16.404 4.05947 16.5355 4.37299 16.5383 4.70073C16.5412 5.02848 16.4152 5.34423 16.1875 5.57999L11.7675 9.99999L16.1875 14.42C16.4152 14.6557 16.5412 14.9715 16.5383 15.2992C16.5355 15.627 16.404 15.9405 16.1723 16.1723C15.9405 16.404 15.627 16.5355 15.2992 16.5383C14.9715 16.5412 14.6557 16.4152 14.42 16.1875L9.99999 11.7675L5.57999 16.1875C5.34423 16.4152 5.02848 16.5412 4.70073 16.5383C4.37299 16.5355 4.05947 16.404 3.82771 16.1723C3.59595 15.9405 3.46449 15.627 3.46164 15.2992C3.4588 14.9715 3.58479 14.6557 3.81249 14.42L8.23249 9.99999L3.81249 5.57999C3.57815 5.34558 3.4465 5.02769 3.4465 4.69624C3.4465 4.36478 3.57815 4.0469 3.81249 3.81249Z" fill="black"/>
</svg>
