<svg viewBox="0 0 20 20" fill="none" xmlns="http://www.w3.org/2000/svg">
    <path d="M14.8716 16C16.3484 16 17.0833 15.2656 17.0833 13.811V5.18903C17.0833 3.73438 16.3484 3 14.8716 3H5.21885C3.74197 3 3 3.72732 3 5.18903V13.811C3 15.2727 3.74197 16 5.21885 16H14.8716ZM14.9634 14.8631H5.11285C4.48394 14.8631 4.13769 14.5312 4.13769 13.8745V7.21564C4.13769 6.566 4.48394 6.22705 5.11285 6.22705H14.9634C15.5923 6.22705 15.9456 6.566 15.9456 7.21564V13.8745C15.9456 14.5312 15.5923 14.8631 14.9634 14.8631ZM9.08417 8.76209C9.33149 8.76209 9.40922 8.69147 9.40922 8.44432V8.0277C9.40922 7.78055 9.33149 7.70288 9.08417 7.70288H8.66725C8.41993 7.70288 8.33513 7.78055 8.33513 8.0277V8.44432C8.33513 8.69147 8.41993 8.76209 8.66725 8.76209H9.08417ZM11.4302 8.76209C11.6775 8.76209 11.7623 8.69147 11.7623 8.44432V8.0277C11.7623 7.78055 11.6775 7.70288 11.4302 7.70288H11.0133C10.766 7.70288 10.6812 7.78055 10.6812 8.0277V8.44432C10.6812 8.69147 10.766 8.76209 11.0133 8.76209H11.4302ZM13.7763 8.76209C14.0236 8.76209 14.1084 8.69147 14.1084 8.44432V8.0277C14.1084 7.78055 14.0236 7.70288 13.7763 7.70288H13.3593C13.112 7.70288 13.0343 7.78055 13.0343 8.0277V8.44432C13.0343 8.69147 13.112 8.76209 13.3593 8.76209H13.7763ZM6.73106 11.0712C6.98545 11.0712 7.06318 11.0005 7.06318 10.7534V10.3368C7.06318 10.0896 6.98545 10.019 6.73106 10.019H6.32121C6.06682 10.019 5.98909 10.0896 5.98909 10.3368V10.7534C5.98909 11.0005 6.06682 11.0712 6.32121 11.0712H6.73106ZM9.08417 11.0712C9.33149 11.0712 9.40922 11.0005 9.40922 10.7534V10.3368C9.40922 10.0896 9.33149 10.019 9.08417 10.019H8.66725C8.41993 10.019 8.33513 10.0896 8.33513 10.3368V10.7534C8.33513 11.0005 8.41993 11.0712 8.66725 11.0712H9.08417ZM11.4302 11.0712C11.6775 11.0712 11.7623 11.0005 11.7623 10.7534V10.3368C11.7623 10.0896 11.6775 10.019 11.4302 10.019H11.0133C10.766 10.019 10.6812 10.0896 10.6812 10.3368V10.7534C10.6812 11.0005 10.766 11.0712 11.0133 11.0712H11.4302ZM13.7763 11.0712C14.0236 11.0712 14.1084 11.0005 14.1084 10.7534V10.3368C14.1084 10.0896 14.0236 10.019 13.7763 10.019H13.3593C13.112 10.019 13.0343 10.0896 13.0343 10.3368V10.7534C13.0343 11.0005 13.112 11.0712 13.3593 11.0712H13.7763ZM6.73106 13.3873C6.98545 13.3873 7.06318 13.3096 7.06318 13.0625V12.6458C7.06318 12.3987 6.98545 12.3281 6.73106 12.3281H6.32121C6.06682 12.3281 5.98909 12.3987 5.98909 12.6458V13.0625C5.98909 13.3096 6.06682 13.3873 6.32121 13.3873H6.73106ZM9.08417 13.3873C9.33149 13.3873 9.40922 13.3096 9.40922 13.0625V12.6458C9.40922 12.3987 9.33149 12.3281 9.08417 12.3281H8.66725C8.41993 12.3281 8.33513 12.3987 8.33513 12.6458V13.0625C8.33513 13.3096 8.41993 13.3873 8.66725 13.3873H9.08417ZM11.4302 13.3873C11.6775 13.3873 11.7623 13.3096 11.7623 13.0625V12.6458C11.7623 12.3987 11.6775 12.3281 11.4302 12.3281H11.0133C10.766 12.3281 10.6812 12.3987 10.6812 12.6458V13.0625C10.6812 13.3096 10.766 13.3873 11.0133 13.3873H11.4302Z"
          fill="currentColor" stroke="currentColor" stroke-width="0.75" stroke-linecap="round" stroke-linejoin="round"/>
</svg>
