<svg viewBox="0 0 1024 1024" version="1.1"
     xmlns="http://www.w3.org/2000/svg">
    <path d="M235.897218 255.672649c0 141.243939 122.876467 255.736648 274.552107 255.736648 151.547643 0 274.488108-114.492708 274.488108-255.736648C784.937433 114.556706 662.060966 0 510.385326 0c-151.611641 0-274.552107 114.492708-274.552106 255.672649z m274.552107-146.107799c86.589511 0 156.795492 65.470118 156.795492 146.107799 0 80.70168-70.205982 146.171798-156.795492 146.171798-86.717507 0-156.923488-65.470118-156.923489-146.171798 0-80.637682 70.205982-146.107799 156.85949-146.107799z m0.31999 511.66529c0 20.15942-17.535496 36.478951-39.230872 36.478951h-19.583437c-183.610721 0-327.030598 143.611871-333.622408 312.823006l-0.70398 18.239476a35.518979 35.518979 0 0 1-12.543639 25.407269 40.958822 40.958822 0 0 1-28.159191 9.791719l-39.166874-1.40796c-21.631378-0.70398-38.526892-17.663492-37.758914-37.758914l0.70398-18.303474c8.895744-225.721511 201.338212-418.291974 451.251026-418.291974h19.583437c21.695376 0 39.230872 16.319531 39.230872 36.478951v36.478951z m196.666346-22.015367l110.908812 103.29303 110.972809-103.29303a41.278813 41.278813 0 0 1 55.422407 0l27.775201 25.855256c15.29556 14.27159 15.29556 37.374925 0 51.646515l-110.972809 103.293031 110.972809 103.357028c15.29556 14.27159 15.29556 37.374925 0 51.646515l-27.775201 25.855257a40.70283 40.70283 0 0 1-27.711204 10.687693 40.70283 40.70283 0 0 1-27.775201-10.687693l-110.908811-103.357028-110.908812 103.357028a41.278813 41.278813 0 0 1-55.486405 0l-27.711203-25.855257a34.814999 34.814999 0 0 1 0-51.646515l110.908812-103.357028-110.908812-103.293031a34.814999 34.814999 0 0 1 0-51.646515l27.711203-25.855256a41.278813 41.278813 0 0 1 55.486405 0z"
          fill="currentColor"/>
</svg>