<svg viewBox="0 0 20 20" fill="none" xmlns="http://www.w3.org/2000/svg">
    <path d="M10 18C14.3765 18 18 14.3686 18 10C18 5.62353 14.3686 2 9.99216 2C5.62353 2 2 5.62353 2 10C2 14.3686 5.63137 18 10 18ZM9.6549 14.8235L10.1098 13.0353C8.82353 12.4549 8.43922 12.1333 8.43922 11.5529C8.43922 11.0353 8.68235 10.7765 8.8549 10.4392C9.23922 9.64706 8.73725 8.97255 7.81961 8.97255C6.20392 8.97255 5.36471 8.31372 5.36471 7.04314C5.36471 5.80392 5.83529 4.6902 6.26667 4.17255C7.34902 3.47451 8.62745 3.06667 9.99216 3.06667C10.2745 3.06667 10.5569 3.08235 10.8314 3.12157C11.4824 3.55294 11.8353 3.89804 11.8353 4.09412C11.8353 4.61961 11.4196 4.94118 11.1137 5.29412C10.7765 5.66274 10.8 6.07843 11.1373 6.41569C11.5137 6.78431 11.9529 7.17647 12.5569 7.74902C12.6431 7.83529 12.6667 7.8902 12.6667 7.9451C12.6667 8.03137 12.6118 8.09412 12.5255 8.09412C12.4549 8.09412 12.4 8.07059 12.2745 7.99216C12.2275 7.95451 12.0618 7.84345 11.8894 7.72844L11.7188 7.61468C11.664 7.57804 11.6125 7.54353 11.5686 7.51373C11.3647 7.37255 11.1765 7.35686 10.9176 7.44314L9.56078 7.95294C9.23922 8.07059 9.12157 8.38431 9.29412 8.6902L9.99216 10.0471L10.7294 10.0392C11.3569 10.0314 11.7804 10.149 12.0314 10.3765C12.3137 10.6431 12.7373 11.3647 12.7373 11.5922C12.7373 11.9686 12.6274 12.2118 12.2824 12.5882L10.0471 15.0039C9.85882 15.2078 9.58431 15.0902 9.6549 14.8235ZM10 16.9333C6.21176 16.9333 3.06667 13.7882 3.06667 10C3.06667 8.32157 3.67843 6.77647 4.69804 5.56863C4.57255 6.03922 4.49412 6.54902 4.49412 7.04314C4.49412 8.82353 5.72549 9.84314 7.8902 9.84314C8.08627 9.84314 8.18824 9.99216 8.07059 10.1647C7.71765 10.7294 7.56863 11.0902 7.56863 11.5529C7.56863 12.6118 8.42353 13.1922 9.12941 13.4824L8.83922 14.6274C8.54118 15.8431 9.89804 16.4314 10.7686 15.498L12.6824 13.4274C13.3333 12.7216 13.6078 12.1882 13.6078 11.5922C13.6078 11.1059 13.0745 10.2196 12.6118 9.79608C12.1176 9.34118 11.6314 9.2549 10.8392 9.2549H10.4706L10.1255 8.58039L11.1529 8.18823C11.8118 8.61176 12.149 8.8549 12.5255 8.8549C13.0824 8.8549 13.451 8.5098 13.451 7.99216C13.451 7.69412 13.3333 7.44314 13.1137 7.21569C12.5255 6.63529 12.2588 6.37647 11.851 5.96078C11.7647 5.88235 11.7725 5.84314 11.8824 5.7098C12.2353 5.31765 12.7059 4.75294 12.7059 4.09412C12.7059 3.91373 12.6745 3.74902 12.5882 3.57647C15.1137 4.61961 16.9333 7.12157 16.9333 10C16.9333 13.7882 13.7882 16.9333 10 16.9333Z"
          fill="currentColor" stroke="currentColor" stroke-width="1" stroke-linecap="round" stroke-linejoin="round"/>
</svg>
