<svg width="20" height="20" viewBox="0 0 20 20" fill="none" xmlns="http://www.w3.org/2000/svg">
    <path d="M14.7841 16C15.0266 16 15.2143 15.8136 15.2143 15.5651C15.2143 15.3865 15.0891 15.2157 14.9249 15.1535C14.1193 14.8041 13.9473 13.7945 14.7216 13.0102C14.9562 12.7694 15.2143 12.451 15.2143 11.8608V4.84827C15.2143 3.62127 14.5964 3 13.3763 3H6.84577C5.61786 3 5 3.62127 5 4.84827V14.1983C5 15.3865 5.61786 16 6.81448 16H14.7841ZM13.6814 12.3967H7.31503V3.86201H13.3294C14.002 3.86201 14.3461 4.21924 14.3461 4.8638V11.7443C14.3461 12.1637 14.1115 12.3967 13.6814 12.3967ZM5.86814 12.684V4.8638C5.86814 4.32019 6.11841 3.97849 6.60331 3.8853V12.4122C6.31394 12.451 6.07148 12.5442 5.86814 12.684ZM12.6412 10.6649C12.8523 10.6649 12.9931 10.5329 12.9931 10.3387C12.9931 10.2611 12.9775 10.1989 12.9462 10.0902L11.382 5.94325C11.2959 5.69474 11.1082 5.57049 10.8501 5.57049C10.592 5.57049 10.4122 5.69474 10.3183 5.94325L8.76192 10.0902C8.72282 10.1989 8.70718 10.2611 8.70718 10.3387C8.70718 10.5329 8.84795 10.6649 9.06694 10.6649C9.23901 10.6649 9.36414 10.5872 9.43453 10.362L9.86469 9.1583H11.8434L12.2658 10.362C12.344 10.5872 12.4613 10.6649 12.6412 10.6649ZM11.6401 8.57587H10.0602L10.8267 6.4092H10.8736L11.6401 8.57587ZM13.697 15.138H6.86141C6.22008 15.138 5.86814 14.7885 5.86814 14.1906C5.86814 13.6237 6.26701 13.2587 6.90834 13.2587H13.2668C13.3763 13.2587 13.4702 13.2431 13.564 13.2276C13.2277 13.8955 13.2981 14.6022 13.697 15.138Z" fill="black"/>
</svg>
