<svg viewBox="0 0 20 20" fill="none" xmlns="http://www.w3.org/2000/svg">
    <path d="M14.5 5.67877C14.5028 4.84371 14.2891 4.02318 13.8812 3.30293C13.4733 2.58269 12.8863 1.98916 12.1813 1.58438C11.4763 1.17959 10.6794 0.978403 9.87373 1.00184C9.06806 1.02527 8.28326 1.27246 7.60133 1.71759C6.9194 2.16271 6.36537 2.78943 5.99713 3.53225C5.62889 4.27507 5.45996 5.10672 5.508 5.94031C5.55604 6.77389 5.81927 7.57881 6.2702 8.27096C6.72113 8.9631 7.3432 9.51707 8.0714 9.87496V17.0018L9.99997 19L13.2143 15.6697L11.2857 13.6715L13.2143 11.6733L11.62 10.0215C12.4667 9.68297 13.1949 9.08709 13.7088 8.31207C14.2228 7.53705 14.4986 6.61911 14.5 5.67877ZM9.99997 5.67877C9.74568 5.67877 9.4971 5.60064 9.28567 5.45427C9.07423 5.30789 8.90944 5.09984 8.81213 4.85643C8.71482 4.61302 8.68935 4.34517 8.73896 4.08676C8.78857 3.82836 8.91102 3.591 9.09083 3.4047C9.27065 3.2184 9.49974 3.09152 9.74914 3.04012C9.99855 2.98872 10.2571 3.0151 10.492 3.11593C10.7269 3.21675 10.9277 3.38749 11.069 3.60656C11.2103 3.82563 11.2857 4.08318 11.2857 4.34665C11.2857 4.69995 11.1502 5.03878 10.9091 5.2886C10.668 5.53842 10.341 5.67877 9.99997 5.67877Z" fill="currentColor"/>
</svg>
