<svg viewBox="0 0 20 20" fill="none" xmlns="http://www.w3.org/2000/svg">
    <path d="M15.8943 5C17.1913 5 17.9449 5.68705 17.9971 6.91822L18 7.05725V13.1555C18 14.4268 17.2927 15.1592 16.0361 15.2099L15.8943 15.2128H4.10573C2.80869 15.2128 2.05508 14.5257 2.0029 13.2945L2 13.1555V7.05725C2 5.78597 2.70729 5.05352 3.96386 5.00282L4.10573 5H15.8943ZM15.8943 6.00484H4.10573C3.48066 6.00484 3.12911 6.31738 3.08992 6.89955L3.08624 7.01185V13.1933C3.08624 13.809 3.40101 14.1578 3.99174 14.1967L4.10573 14.2004H15.8943C16.5212 14.2004 16.8779 13.8861 16.9177 13.3053L16.9214 13.1933V7.01185C16.9214 6.35963 16.5604 6.00484 15.8943 6.00484ZM7.02521 9.22128C7.52068 9.22128 7.90516 9.61153 7.90516 10.1064C7.90516 10.5892 7.50483 10.9915 7.02521 10.9915C6.5456 10.9915 6.15319 10.5892 6.15319 10.1064C6.15319 9.61555 6.5456 9.22128 7.02521 9.22128ZM10.002 9.22128C10.4895 9.22128 10.87 9.61153 10.87 10.1064C10.87 10.5892 10.4737 10.9915 10.002 10.9915C9.52237 10.9915 9.12996 10.5892 9.12996 10.1064C9.12996 9.61555 9.52237 9.22128 10.002 9.22128ZM12.9748 9.22128C13.4663 9.22128 13.8468 9.61153 13.8468 10.1064C13.8468 10.5892 13.4504 10.9915 12.9748 10.9915C12.4912 10.9915 12.0988 10.5892 12.0988 10.1064C12.0988 9.61555 12.4912 9.22128 12.9748 9.22128Z"
          fill="currentColor" stroke="currentColor"  stroke-width="1"/>
</svg>
