<svg width="20" height="20" viewBox="0 0 20 20" fill="none" xmlns="http://www.w3.org/2000/svg">
    <path d="M7.0817 3.20242C7.38445 3.20242 7.66337 3.3666 7.81033 3.63128L8.82966 5.46745C8.96312 5.70787 8.96941 5.99866 8.84641 6.24462L7.86441 8.20866C7.86441 8.20866 8.149 9.67174 9.34 10.8627C10.531 12.0537 11.9892 12.3334 11.9892 12.3334L13.9529 11.3516C14.199 11.2285 14.49 11.2349 14.7305 11.3686L16.5719 12.3923C16.8363 12.5394 17.0003 12.8181 17.0003 13.1207V15.2346C17.0003 16.3112 16.0004 17.0887 14.9803 16.7445C12.8854 16.0376 9.63341 14.6917 7.57225 12.6305C5.51104 10.5693 4.16513 7.31737 3.45823 5.22241C3.11406 4.20237 3.8916 3.20242 4.96812 3.20242H7.0817Z" stroke="currentColor" stroke-width="1.66667" stroke-linejoin="round"/>
</svg>
