<svg width="20" height="20" viewBox="0 0 20 20" fill="none" xmlns="http://www.w3.org/2000/svg">
    <path d="M9.30769 9.30769V1.69231C9.30769 1.5087 9.38063 1.33261 9.51046 1.20277C9.6403 1.07294 9.81639 1 10 1C10.1836 1 10.3597 1.07294 10.4895 1.20277C10.6194 1.33261 10.6923 1.5087 10.6923 1.69231V9.30769H18.3077C18.4913 9.30769 18.6674 9.38063 18.7972 9.51046C18.9271 9.6403 19 9.81639 19 10C19 10.1836 18.9271 10.3597 18.7972 10.4895C18.6674 10.6194 18.4913 10.6923 18.3077 10.6923H10.6923V18.3077C10.6923 18.4913 10.6194 18.6674 10.4895 18.7972C10.3597 18.9271 10.1836 19 10 19C9.81639 19 9.6403 18.9271 9.51046 18.7972C9.38063 18.6674 9.30769 18.4913 9.30769 18.3077V10.6923H1.69231C1.5087 10.6923 1.33261 10.6194 1.20277 10.4895C1.07294 10.3597 1 10.1836 1 10C1 9.81639 1.07294 9.6403 1.20277 9.51046C1.33261 9.38063 1.5087 9.30769 1.69231 9.30769H9.30769Z" fill="currentColor"/>
</svg>
