<svg width="20" height="20" viewBox="0 0 20 20" fill="none" xmlns="http://www.w3.org/2000/svg">
    <path d="M10 2L16.391 3.34023C16.5637 3.37646 16.7182 3.46719 16.8289 3.59742C16.9396 3.72766 17 3.88963 17 4.0566V11.3868C16.9999 12.1118 16.8102 12.8255 16.4477 13.4647C16.0852 14.1038 15.561 14.6487 14.9218 15.0508L10.4317 17.8766C10.3039 17.9571 10.1536 18 10 18C9.84635 18 9.69615 17.9571 9.56833 17.8766L5.07822 15.0508C4.43909 14.6487 3.91502 14.104 3.55249 13.465C3.18996 12.826 3.00018 12.1124 3 11.3875V4.05661C3.00003 3.88965 3.06038 3.72768 3.1711 3.59744C3.28182 3.4672 3.43628 3.37648 3.609 3.34025L10 2ZM10 3.50391L4.55555 4.64523V11.3868C4.55556 11.8701 4.682 12.3459 4.92365 12.772C5.1653 13.1981 5.51468 13.5613 5.94078 13.8295L9.56833 16.1121C9.69615 16.1926 9.84635 16.2356 10 16.2356C10.1536 16.2356 10.3039 16.1926 10.4317 16.1121L14.0592 13.8295C14.4852 13.5614 14.8345 13.1983 15.0762 12.7723C15.3178 12.3464 15.4443 11.8707 15.4445 11.3875V4.64523L10 3.50391ZM10 6.40384C10.3042 6.40362 10.6019 6.48758 10.856 6.64535C11.1102 6.80311 11.3098 7.02775 11.4301 7.29146C11.5503 7.55517 11.586 7.84637 11.5327 8.12903C11.4794 8.41168 11.3394 8.67338 11.1301 8.88173C10.9388 9.07184 10.7785 9.3045 10.7785 9.56653V12.051C10.7783 12.1948 10.7176 12.3326 10.6098 12.4342C10.5297 12.5098 10.4347 12.5698 10.3301 12.6107C10.2254 12.6517 10.1133 12.6728 10 12.6728C9.88673 12.6728 9.77457 12.6517 9.66994 12.6107C9.56531 12.5698 9.47026 12.5098 9.39022 12.4342C9.28266 12.3325 9.22224 12.1947 9.22222 12.051V9.56653C9.22222 9.3045 9.062 9.07184 8.87067 8.88173C8.66103 8.67355 8.52075 8.41189 8.46721 8.12919C8.41367 7.84648 8.44922 7.55517 8.56946 7.29135C8.68969 7.02753 8.88933 6.80282 9.14362 6.64505C9.39792 6.48729 9.69568 6.40342 10 6.40384Z"
          fill="currentColor" stroke="currentColor" stroke-width="0.5" stroke-linecap="round" stroke-linejoin="round"/>
</svg>
