<svg viewBox="0 0 20 20" fill="none" xmlns="http://www.w3.org/2000/svg">
    <path d="M10.004 9.41758C10.6398 9.41758 11.2194 9.24687 11.743 8.90547C12.2666 8.56406 12.6846 8.1093 12.9971 7.54118C13.3097 6.97306 13.4659 6.34492 13.4659 5.65678C13.4659 4.97397 13.311 4.3565 13.0011 3.80438C12.6913 3.25227 12.2746 2.81351 11.751 2.4881C11.2274 2.1627 10.6451 2 10.004 2C9.36825 2 8.78859 2.16537 8.26503 2.49611C7.74146 2.82684 7.32341 3.2696 7.01088 3.82439C6.69834 4.37917 6.54207 4.9953 6.54207 5.67278C6.54207 6.35559 6.69834 6.98106 7.01088 7.54918C7.32341 8.1173 7.74146 8.57073 8.26503 8.90947C8.78859 9.24821 9.36825 9.41758 10.004 9.41758ZM10.004 8.20932C9.61401 8.20932 9.25472 8.09596 8.92616 7.86925C8.5976 7.64253 8.33314 7.33713 8.1328 6.95305C7.93245 6.56897 7.83228 6.14221 7.83228 5.67278C7.83228 5.20868 7.93112 4.79126 8.12879 4.42051C8.32646 4.04977 8.58958 3.75504 8.91815 3.53633C9.24671 3.31761 9.60866 3.20826 10.004 3.20826C10.4047 3.20826 10.7693 3.31495 11.0979 3.52832C11.4264 3.7417 11.6882 4.03377 11.8832 4.40451C12.0782 4.77526 12.1757 5.19268 12.1757 5.65678C12.1757 6.12621 12.0769 6.5543 11.8792 6.94105C11.6816 7.3278 11.4184 7.63587 11.0899 7.86525C10.7613 8.09463 10.3994 8.20932 10.004 8.20932ZM15.0366 16.8191C16.3455 16.8191 17 16.3924 17 15.5389C17 15.0161 16.8397 14.4586 16.5192 13.8665C16.1986 13.2744 15.7352 12.7156 15.1288 12.1902C14.5224 11.6647 13.7878 11.2366 12.925 10.9059C12.0622 10.5752 11.0885 10.4098 10.004 10.4098C8.91414 10.4098 7.9378 10.5752 7.07498 10.9059C6.21217 11.2366 5.47758 11.6647 4.87121 12.1902C4.26483 12.7156 3.80137 13.2744 3.48082 13.8665C3.16027 14.4586 3 15.0161 3 15.5389C3 16.3924 3.65445 16.8191 4.96336 16.8191H15.0366ZM15.4213 15.6109H4.58672C4.47987 15.6109 4.40374 15.5949 4.35833 15.5629C4.31292 15.5309 4.29021 15.4722 4.29021 15.3868C4.29021 15.0614 4.41442 14.684 4.66285 14.2546C4.91128 13.8252 5.27857 13.4104 5.76474 13.0103C6.25091 12.6103 6.84927 12.2782 7.55982 12.0141C8.27037 11.7501 9.0851 11.618 10.004 11.618C10.9229 11.618 11.7363 11.7501 12.4442 12.0141C13.1521 12.2782 13.7491 12.6103 14.2353 13.0103C14.7214 13.4104 15.0887 13.8252 15.3371 14.2546C15.5856 14.684 15.7098 15.0614 15.7098 15.3868C15.7098 15.4722 15.6871 15.5309 15.6417 15.5629C15.5963 15.5949 15.5228 15.6109 15.4213 15.6109Z"
          fill="currentColor" stroke="currentColor" stroke-width="1" stroke-linecap="round" stroke-linejoin="round"/>
</svg>
