<svg viewBox="0 0 20 20" fill="none" xmlns="http://www.w3.org/2000/svg">
    <path d="M9.96295 4.71567C9.99712 3.78586 10.2584 2.96914 10.7405 2.28642C11.2251 1.60023 12.0262 1.11279 13.1227 0.836588C13.13 0.870355 13.1376 0.904142 13.1455 0.9378V1.11447C13.1455 1.51507 13.0483 1.97443 12.8565 2.4797C12.6555 2.96892 12.3414 3.42937 11.9242 3.84493C11.534 4.21108 11.173 4.4535 10.8539 4.56308C10.7486 4.59454 10.6042 4.6255 10.4297 4.65338C10.2746 4.67754 10.119 4.69833 9.96295 4.71567Z"
          fill="currentColor"/>
    <path d="M10.1459 6.09542C8.90729 6.09542 8.04733 4.99996 6.82554 4.99996C5.60379 4.99996 3.08675 6.12296 3.08675 9.99996C3.08675 13.877 5.32191 16.375 5.57191 16.6666C5.82187 16.9583 6.40004 17.7081 7.29575 17.7081C8.1915 17.7081 9.17212 16.9959 10.1459 16.9959C11.1197 16.9959 12.3453 17.7081 13.1455 17.7081C13.9457 17.7081 14.2748 17.3819 14.8194 16.8192C15.3639 16.2566 16.4026 14.5397 16.7654 13.5092C16.1679 13.1535 14.5842 12.188 14.5842 9.99996C14.5842 8.54133 15.1172 7.32954 16.1834 6.36467C15.484 5.45487 14.6728 4.99996 13.7498 4.99996C12.3654 4.99996 11.3845 6.09542 10.1459 6.09542Z"
          fill="currentColor" stroke="currentColor" stroke-width="1.66667" stroke-linejoin="round"/>
</svg>
