<svg width="73" height="25" viewBox="0 0 73 25" fill="none" xmlns="http://www.w3.org/2000/svg">
    <path d="M9.53824 21.5182C9.30918 22.0439 8.82723 22.4161 8.18681 22.4161C7.29265 22.4161 6.67746 21.6632 6.67746 20.799V20.7817C6.67746 19.9186 7.27593 19.1815 8.1698 19.1815C8.84367 19.1815 9.35681 19.6021 9.5734 20.1744H11.2976C11.0215 18.7488 9.78716 17.6846 8.18681 17.6846C6.36533 17.6846 5 19.0805 5 20.799V20.816C5 22.5358 6.3486 23.9139 8.1698 23.9139C9.72762 23.9139 10.9453 22.8903 11.2664 21.5185L9.53824 21.5182Z" fill="#212121"/>
    <path d="M12.7976 17.8045H14.4334V22.3395H17.2919V23.7939H12.7976V17.8045Z" fill="#212121"/>
    <path d="M18.7919 20.8166V20.7996C18.7919 19.0798 20.1578 17.6847 21.979 17.6847C23.8002 17.6847 25.1491 19.0625 25.1491 20.7824V20.7996C25.1491 22.5195 23.7829 23.9137 21.9623 23.9137C20.1416 23.9137 18.7919 22.5365 18.7919 20.8166ZM23.4796 20.8166V20.7996C23.4796 19.9365 22.8644 19.1822 21.9623 19.1822C21.0684 19.1822 20.4696 19.9181 20.4696 20.7824V20.7996C20.4696 21.6627 21.0851 22.4168 21.979 22.4168C22.8811 22.4168 23.4796 21.6809 23.4796 20.8166Z" fill="#212121"/>
    <path d="M26.6491 21.1122V17.7493H28.3101V21.0783C28.3101 21.9414 28.7401 22.3531 29.3976 22.3531C30.055 22.3531 30.4851 21.9595 30.4851 21.1209V17.7493H32.1464V21.0685C32.1464 23.0024 31.0589 23.8491 29.3808 23.8491C27.7028 23.8491 26.6491 22.9868 26.6491 21.1122Z" fill="#212121"/>
    <path d="M33.6464 17.8046H35.9229C38.031 17.8046 39.2534 19.0365 39.2534 20.7647V20.7823C39.2534 22.5102 38.0139 23.7939 35.8894 23.7939H33.6464V17.8046ZM35.9484 22.3215C36.9267 22.3215 37.5754 21.7748 37.5754 20.8067V20.7898C37.5754 19.8317 36.9267 19.2753 35.9484 19.2753H35.2822V22.3221L35.9484 22.3215Z" fill="#212121"/>
    <path d="M40.7534 17.8045H45.4747V19.2594H42.3892V20.2773H45.1799V21.6548H42.3892V23.7939H40.7534V17.8045Z" fill="#212121"/>
    <path d="M46.9747 17.8045H48.6105V22.3395H51.469V23.7939H46.9747V17.8045Z" fill="#212121"/>
    <path d="M55.4819 17.7831H57.0581L59.5711 23.8153H57.8173L57.387 22.7457H55.1102L54.6889 23.8153H52.969L55.4819 17.7831ZM56.915 21.4539L56.2573 19.751L55.591 21.4539H56.915Z" fill="#212121"/>
    <path d="M61.0711 17.8043H63.8618C64.7645 17.8043 65.3879 18.0442 65.7842 18.4548C66.1304 18.7972 66.3073 19.2604 66.3073 19.8499V19.8668C66.3073 20.782 65.8253 21.3896 65.0931 21.7061L66.5012 23.7942H64.612L63.4233 21.98H62.7069V23.7942H61.0711V17.8043ZM63.7861 20.6796C64.3426 20.6796 64.6633 20.4057 64.6633 19.9693V19.9523C64.6633 19.4816 64.3259 19.2422 63.7773 19.2422H62.7069V20.6807L63.7861 20.6796Z" fill="#212121"/>
    <path d="M68.0012 17.8045H72.7478V19.2165H69.6202V20.1231H72.4532V21.4324H69.6202V22.3824H72.79V23.7939H68.0012V17.8045Z" fill="#212121"/>
    <path d="M62.8482 14.4773L63.0119 13.9029C63.2069 13.2194 63.1343 12.5877 62.8072 12.1235C62.5061 11.696 62.0045 11.4443 61.3953 11.415L49.8562 11.2666C49.8204 11.266 49.7853 11.2567 49.7537 11.2397C49.722 11.2226 49.6949 11.1982 49.6742 11.1685C49.654 11.1378 49.6411 11.1027 49.6366 11.066C49.6321 11.0295 49.6361 10.9922 49.6482 10.9575C49.668 10.9 49.704 10.8498 49.7517 10.8128C49.7993 10.7759 49.8565 10.754 49.9163 10.7497L61.5622 10.5998C62.9437 10.5354 64.4394 9.39792 64.963 8.01066L65.6272 6.24951C65.6544 6.17504 65.6606 6.09435 65.6451 6.0165C64.891 2.57417 61.8638 0 58.2442 0C54.9093 0 52.0777 2.18441 51.062 5.22063C50.3756 4.69782 49.52 4.45748 48.6663 4.54774C47.0664 4.70897 45.78 6.01624 45.6217 7.64017C45.581 8.04567 45.6108 8.45526 45.7096 8.85033C43.096 8.92764 41 11.1007 41 13.772C41.0004 14.0105 41.0177 14.2486 41.052 14.4845C41.0595 14.539 41.0861 14.5889 41.1269 14.6251C41.1678 14.6613 41.22 14.6815 41.2742 14.6819L62.5773 14.6844C62.5793 14.6846 62.5813 14.6846 62.5833 14.6844C62.6435 14.6834 62.7018 14.6627 62.7495 14.6254C62.7973 14.5881 62.8319 14.5362 62.8482 14.4773Z" fill="#F6821F"/>
    <path d="M66.6922 6.37723C66.5853 6.37723 66.4787 6.37995 66.3727 6.38541C66.3555 6.38665 66.3388 6.39038 66.3227 6.39649C66.2949 6.40614 66.2698 6.42248 66.2495 6.44413C66.2293 6.46578 66.2146 6.49207 66.2065 6.52078L65.7528 8.1112C65.5578 8.79465 65.6303 9.4258 65.9577 9.89C66.2585 10.3181 66.7601 10.5693 67.3693 10.5985L69.8292 10.7484C69.8638 10.7496 69.8976 10.7589 69.9281 10.7757C69.9585 10.7924 69.9847 10.8162 70.0045 10.845C70.0248 10.8759 70.0379 10.9111 70.0424 10.9481C70.0469 10.985 70.0428 11.0224 70.0304 11.0574C70.0106 11.1148 69.9748 11.1649 69.9272 11.2018C69.8796 11.2387 69.8226 11.2607 69.7629 11.2651L67.2071 11.415C65.8193 11.4799 64.3239 12.617 63.8007 14.0042L63.6161 14.4939C63.6084 14.5144 63.6056 14.5365 63.6079 14.5583C63.6102 14.5801 63.6176 14.601 63.6294 14.6193C63.6413 14.6377 63.6573 14.6529 63.6761 14.6637C63.6949 14.6745 63.716 14.6807 63.7376 14.6816C63.7398 14.6816 63.742 14.6816 63.7443 14.6816H72.5389C72.5901 14.6821 72.64 14.6656 72.681 14.6345C72.722 14.6035 72.7518 14.5597 72.7659 14.5098C72.9219 13.9455 73.0005 13.3623 73 12.7764C72.9989 9.24245 70.1753 6.37723 66.6922 6.37723Z" fill="#FBAD41"/>
</svg>
