<svg width="20" height="20" viewBox="0 0 20 20" fill="none" xmlns="http://www.w3.org/2000/svg">
    <path d="M13.6551 13.873L13.7574 13.5209C13.8793 13.102 13.8339 12.7148 13.6295 12.4303C13.4413 12.1683 13.1278 12.0141 12.747 11.9961L5.53513 11.9052C5.51278 11.9048 5.49082 11.8991 5.47104 11.8887C5.45127 11.8782 5.4343 11.8633 5.4214 11.845C5.40873 11.8262 5.40071 11.8047 5.3979 11.7822C5.39509 11.7598 5.39755 11.737 5.40512 11.7157C5.4175 11.6805 5.43997 11.6497 5.46978 11.627C5.49953 11.6044 5.53531 11.591 5.57268 11.5884L12.8514 11.4965C13.7148 11.457 14.6496 10.7599 14.9769 9.90963L15.392 8.83025C15.409 8.78461 15.4129 8.73515 15.4032 8.68744C14.9319 6.57768 13.0399 5 10.7776 5C8.69332 5 6.92356 6.3388 6.28874 8.19966C5.85977 7.87924 5.32498 7.73193 4.79145 7.78725C3.79152 7.88607 2.98753 8.68728 2.88858 9.68257C2.86313 9.93109 2.88176 10.1821 2.9435 10.4243C1.31001 10.4716 0 11.8035 0 13.4407C0.000229303 13.5869 0.0110648 13.7328 0.0325046 13.8774C0.0372053 13.9108 0.0538294 13.9413 0.0793393 13.9635C0.104849 13.9857 0.137524 13.9981 0.171404 13.9983L13.4858 13.9999C13.4871 14 13.4883 14 13.4896 13.9999C13.5272 13.9993 13.5636 13.9866 13.5935 13.9637C13.6233 13.9409 13.6449 13.9091 13.6551 13.873Z" fill="#F6821F"/>
    <path d="M16.0577 8.90852C15.9908 8.90852 15.9242 8.91019 15.8579 8.91354C15.8472 8.9143 15.8367 8.91658 15.8267 8.92033C15.8093 8.92624 15.7936 8.93626 15.7809 8.94953C15.7683 8.96279 15.7591 8.97891 15.7541 8.99651L15.4705 9.97125C15.3486 10.3901 15.3939 10.777 15.5985 11.0615C15.7866 11.3238 16.1001 11.4778 16.4808 11.4957L18.0182 11.5876C18.0399 11.5883 18.061 11.594 18.08 11.6043C18.0991 11.6146 18.1154 11.6291 18.1278 11.6468C18.1405 11.6657 18.1487 11.6873 18.1515 11.71C18.1543 11.7326 18.1518 11.7555 18.144 11.777C18.1316 11.8121 18.1092 11.8428 18.0795 11.8654C18.0498 11.888 18.0141 11.9015 17.9768 11.9042L16.3794 11.9961C15.5121 12.0359 14.5774 12.7328 14.2505 13.583L14.1351 13.8832C14.1303 13.8957 14.1285 13.9092 14.1299 13.9226C14.1313 13.9359 14.136 13.9488 14.1434 13.96C14.1508 13.9712 14.1608 13.9806 14.1726 13.9872C14.1843 13.9938 14.1975 13.9976 14.211 13.9982C14.2124 13.9982 14.2137 13.9982 14.2152 13.9982H19.7118C19.7438 13.9985 19.775 13.9883 19.8006 13.9693C19.8262 13.9503 19.8449 13.9235 19.8537 13.8929C19.9512 13.5471 20.0003 13.1896 20 12.8305C19.9993 10.6646 18.2345 8.90852 16.0577 8.90852Z" fill="#FBAD41"/>
</svg>
