<svg width="20" height="20" viewBox="0 0 20 20" fill="none" xmlns="http://www.w3.org/2000/svg">
    <path d="M18.75 10C18.75 11.9094 18.1894 13.6175 17.0769 15.1419C15.9644 16.6656 14.5281 17.7169 12.7675 18.3031C12.5662 18.3388 12.4088 18.3119 12.3213 18.2244C12.2743 18.1811 12.2373 18.1281 12.2131 18.069C12.1888 18.01 12.1777 17.9463 12.1806 17.8825V15.4825C12.1806 14.7475 11.9794 14.2044 11.5856 13.8631C11.9782 13.8244 12.3674 13.7567 12.75 13.6606C13.1245 13.5604 13.4839 13.4105 13.8188 13.215C14.1869 13.0044 14.4931 12.7587 14.7388 12.4613C14.9838 12.1637 15.185 11.76 15.3425 11.2612C15.5006 10.7619 15.5794 10.1931 15.5794 9.54437C15.5794 8.625 15.2819 7.84562 14.6769 7.1975C14.9575 6.505 14.9313 5.73438 14.5894 4.87625C14.3794 4.80562 14.0731 4.85 13.67 4.99875C13.2669 5.1475 12.9169 5.31437 12.6188 5.49813L12.1894 5.76937C11.48 5.56812 10.7531 5.47188 10 5.47188C9.24687 5.47188 8.52 5.56812 7.81063 5.76937C7.6534 5.66204 7.49269 5.5599 7.32875 5.46313C7.12687 5.34063 6.81187 5.19187 6.37375 5.025C5.945 4.85 5.61188 4.80562 5.3925 4.8675C5.06 5.72563 5.03375 6.49687 5.31375 7.18875C4.71812 7.84562 4.41188 8.625 4.41188 9.54437C4.41188 10.1931 4.49063 10.7619 4.64875 11.2525C4.80563 11.7431 5.0075 12.1462 5.24437 12.4525C5.48937 12.7587 5.79563 13.0131 6.16375 13.215C6.53188 13.4162 6.89062 13.565 7.2325 13.6606C7.61531 13.7568 8.0047 13.8245 8.3975 13.8631C8.09062 14.1337 7.90687 14.5281 7.83687 15.0363C7.67319 15.1155 7.49921 15.1715 7.32 15.2025C7.10607 15.2402 6.88908 15.2578 6.67188 15.255C6.4175 15.255 6.1725 15.1763 5.92688 15.01C5.68187 14.8438 5.47188 14.6069 5.29688 14.3006C5.15789 14.0647 4.96965 13.8615 4.745 13.705C4.52562 13.5475 4.33313 13.4594 4.18438 13.4331L3.95687 13.3981C3.79875 13.3981 3.685 13.4163 3.62375 13.4506C3.5625 13.4856 3.545 13.5294 3.57125 13.5819C3.5975 13.6344 3.6325 13.6875 3.67625 13.74C3.72 13.7925 3.7725 13.8363 3.825 13.88L3.90375 13.9325C4.07062 14.0112 4.23688 14.1519 4.40313 14.3619C4.57 14.5719 4.68375 14.765 4.7625 14.94L4.87625 15.2025C4.9725 15.4919 5.13875 15.7281 5.37562 15.9031C5.61188 16.0787 5.86562 16.1925 6.1375 16.245C6.40875 16.2975 6.67188 16.3237 6.92563 16.3237C7.17938 16.3237 7.39 16.315 7.55625 16.28L7.81938 16.2362C7.81938 16.525 7.81938 16.8669 7.8275 17.2525C7.8275 17.6381 7.83687 17.8481 7.83687 17.8656C7.83832 17.93 7.82571 17.9938 7.7999 18.0528C7.7741 18.1117 7.73574 18.1643 7.6875 18.2069C7.59125 18.2944 7.43375 18.3206 7.2325 18.2856C5.47187 17.6987 4.03562 16.6481 2.92313 15.1237C1.80187 13.6175 1.25 11.9006 1.25 10C1.25 8.415 1.64438 6.95188 2.42375 5.61188C3.20312 4.27187 4.26312 3.21188 5.61188 2.42375C6.95188 1.64438 8.41437 1.25 10 1.25C11.5856 1.25 13.0481 1.64438 14.3881 2.42375C15.7281 3.20312 16.7881 4.26312 17.5763 5.61188C18.3556 6.94313 18.75 8.415 18.75 10Z" fill="currentColor"/>
</svg>
