<svg width="20" height="20" viewBox="0 0 20 20" fill="none" xmlns="http://www.w3.org/2000/svg">
    <path d="M4.7635 10C4.7635 9.4285 4.861 8.88025 5.0335 8.3665L2.005 6.1015C1.39652 7.31085 1.08054 8.6462 1.0825 10C1.0825 11.401 1.414 12.7225 2.0035 13.8955L5.0305 11.6267C4.854 11.1025 4.76382 10.5531 4.7635 10Z" fill="#FBBC05"/>
    <path d="M10.0825 4.80025C11.35 4.80025 12.4953 5.23975 13.3953 5.95975L16.0135 3.4C14.4183 2.04025 12.373 1.20025 10.0825 1.20025C6.52601 1.20025 3.469 3.1915 2.005 6.1015L5.035 8.3665C5.7325 6.292 7.72151 4.80025 10.0825 4.80025Z" fill="#EA4335"/>
    <path d="M10.0825 15.1997C7.72075 15.1997 5.73175 13.708 5.0335 11.6335L2.005 13.8985C3.46825 16.8085 6.52525 18.7997 10.0825 18.7997C12.277 18.7997 14.3725 18.037 15.946 16.6067L13.0705 14.4302C12.2598 14.9305 11.2383 15.1997 10.0818 15.1997" fill="#34A853"/>
    <path d="M18.673 10C18.673 9.48025 18.5905 8.92 18.4683 8.40025H10.0818V11.8H14.9088C14.668 12.9595 14.011 13.8505 13.0713 14.4302L15.946 16.6067C17.5983 15.1052 18.673 12.8687 18.673 10Z" fill="#4285F4"/>
</svg>
