<svg viewBox="0 0 20 20" fill="none" xmlns="http://www.w3.org/2000/svg">
    <path d="M7.92352 1.75C9.78482 1.75025 11.3266 3.30432 11.3268 5.2627C11.3268 7.22128 9.78496 8.77611 7.92352 8.77637C6.06188 8.77637 4.51923 7.22144 4.51923 5.2627C4.51947 3.30416 6.06203 1.75 7.92352 1.75Z" stroke="currentColor" stroke-width="1.5"/>
    <path d="M19 9.52632C19.002 8.93244 18.8486 8.3489 18.5558 7.83669C18.2629 7.32447 17.8414 6.90237 17.3353 6.6145C16.8292 6.32662 16.257 6.18355 15.6786 6.20021C15.1002 6.21687 14.5367 6.39267 14.0471 6.70923C13.5575 7.02579 13.1598 7.4715 12.8954 7.99977C12.631 8.52804 12.5097 9.11949 12.5442 9.71231C12.5787 10.3051 12.7677 10.8776 13.0914 11.3698C13.4152 11.862 13.8618 12.256 14.3846 12.5105V17.5789L15.7692 19L18.0769 16.6316L16.6923 15.2105L18.0769 13.7895L16.9323 12.6147C17.5402 12.374 18.063 11.9502 18.432 11.399C18.801 10.8479 18.999 10.1951 19 9.52632ZM15.7692 9.52632C15.5867 9.52632 15.4082 9.47075 15.2564 9.36666C15.1046 9.26256 14.9863 9.1146 14.9164 8.94149C14.8466 8.76838 14.8283 8.5779 14.8639 8.39412C14.8995 8.21035 14.9874 8.04155 15.1165 7.90906C15.2456 7.77656 15.4101 7.68634 15.5891 7.64978C15.7682 7.61323 15.9538 7.63199 16.1225 7.70369C16.2911 7.7754 16.4353 7.89682 16.5367 8.05262C16.6382 8.20841 16.6923 8.39158 16.6923 8.57895C16.6923 8.8302 16.5951 9.07117 16.4219 9.24884C16.2488 9.4265 16.014 9.52632 15.7692 9.52632Z" fill="currentColor"/>
    <path d="M6.53809 11.6974H9.30762C9.88834 11.6977 10.4637 11.8073 11.0059 12.0196C11.3182 12.6373 11.7397 13.1909 12.25 13.6524V17.7765H1.75V16.6319C1.75 15.3172 2.25905 14.0598 3.15918 13.1358C4.05869 12.2127 5.27462 11.6975 6.53809 11.6974Z" stroke="currentColor" stroke-width="1.5"/>
</svg>
