<svg viewBox="0 0 20 20" fill="none" xmlns="http://www.w3.org/2000/svg">
    <path d="M9.99987 8.091C8.94821 8.091 8.09086 8.94729 8.09086 10C8.09086 11.0527 8.94821 11.9092 9.99987 11.9092C11.0532 11.9092 11.9089 11.0527 11.9089 10C11.9089 8.9473 11.0532 8.091 9.99987 8.091ZM9.99987 11.3637C9.24793 11.3637 8.63598 10.7515 8.63598 10C8.63598 9.24805 9.24793 8.63633 9.99987 8.63633C10.7522 8.63633 11.3638 9.24805 11.3638 10C11.3638 10.7515 10.7522 11.3637 9.99987 11.3637ZM3.04243 8.93055C3.49295 8.93055 3.86055 8.56295 3.86055 8.11199C3.86055 7.66148 3.49295 7.29389 3.04243 7.29389C2.59042 7.29389 2.22389 7.66148 2.22389 8.11199C2.22389 8.56295 2.59042 8.93055 3.04243 8.93055ZM3.04243 7.83965C3.19217 7.83965 3.31477 7.96225 3.31477 8.11199C3.31477 8.26217 3.19217 8.38477 3.04243 8.38477C2.89225 8.38477 2.76965 8.26219 2.76965 8.11199C2.76965 7.96225 2.89225 7.83965 3.04243 7.83965ZM12.727 13.8861C12.2765 13.8861 11.9089 14.2535 11.9089 14.7044C11.9089 15.1549 12.2764 15.5227 12.727 15.5227C13.179 15.5227 13.5451 15.1549 13.5451 14.7044C13.5451 14.2534 13.179 13.8861 12.727 13.8861ZM12.727 14.9768C12.5772 14.9768 12.4546 14.8542 12.4546 14.7044C12.4546 14.5542 12.5772 14.4316 12.727 14.4316C12.8782 14.4316 12.9998 14.5542 12.9998 14.7044C12.9998 14.8542 12.8782 14.9768 12.727 14.9768ZM15.1374 5.7285C15.5879 5.7285 15.9555 5.3609 15.9555 4.91041C15.9555 4.45881 15.588 4.09229 15.1374 4.09229C14.6854 4.09229 14.3193 4.45881 14.3193 4.91041C14.3193 5.36092 14.6854 5.7285 15.1374 5.7285ZM15.1374 4.63764C15.287 4.63764 15.4098 4.75916 15.4098 4.91041C15.4098 5.06016 15.287 5.18316 15.1374 5.18316C14.9862 5.18316 14.8644 5.06014 14.8644 4.91041C14.8643 4.87455 14.8713 4.83903 14.885 4.80588C14.8987 4.77274 14.9188 4.74263 14.9442 4.71729C14.9696 4.69194 14.9997 4.67186 15.0329 4.65819C15.066 4.64452 15.1015 4.63753 15.1374 4.63764Z"
          fill="currentColor" stroke="currentColor" stroke-width="0.05"/>
    <path d="M15.8164 10C16.0796 9.72869 16.3286 9.45676 16.5469 9.18613C17.6965 7.75863 18.0554 6.49826 17.5574 5.63625C17.3446 5.26717 16.9755 5.00818 16.4941 4.84316C16.4951 4.86502 16.5006 4.8875 16.5006 4.91043C16.5006 5.07586 16.4665 5.23262 16.412 5.3798C16.6952 5.48969 16.9395 5.65514 17.0861 5.90924C17.4573 6.55174 17.106 7.62225 16.1224 8.84338C15.9142 9.10045 15.6789 9.35922 15.4287 9.61631C14.8472 9.06482 14.1829 8.52375 13.4535 8.00807C13.3714 7.10809 13.2335 6.26855 13.0492 5.50453C13.3169 5.43687 13.5892 5.36201 13.8419 5.31662C13.8011 5.18744 13.7735 5.05252 13.7735 4.91043C13.7735 4.86355 13.7822 4.81922 13.7873 4.77404C13.5078 4.8224 13.2096 4.9032 12.9147 4.97766C12.2794 2.72502 11.2221 1.27312 9.99986 1.27312C8.78108 1.27312 7.7258 2.71846 7.09055 4.96238C6.26692 4.7526 5.49674 4.63766 4.82522 4.63766C3.64313 4.63766 2.81992 4.98275 2.44237 5.63627C2.22389 6.01551 2.18463 6.47221 2.28963 6.97617C2.44065 6.87648 2.61289 6.80711 2.79658 6.77318C2.74313 6.43508 2.77985 6.14195 2.9141 5.90926C3.26133 5.30898 4.1452 5.1832 4.82524 5.1832C5.45393 5.1832 6.17828 5.29223 6.95418 5.48971C6.76984 6.25691 6.63027 7.10154 6.54735 8.0066C5.80516 8.53031 5.14381 9.07246 4.57111 9.61715C4.38129 9.42117 4.20057 9.2258 4.03916 9.03535C3.91611 9.16877 3.76744 9.27822 3.59945 9.35414C3.77764 9.56688 3.97615 9.7807 4.18531 9.99641C2.55842 11.6687 1.83299 13.3066 2.4424 14.3634C2.81998 15.0171 3.64422 15.3624 4.82526 15.3624C5.49678 15.3624 6.26695 15.2474 7.09059 15.0374C7.72584 17.2815 8.78111 18.7269 9.9999 18.7269C11.0242 18.7269 11.9314 17.7062 12.5722 16.0526C12.3863 16.0313 12.2139 15.9732 12.058 15.8846C11.4879 17.343 10.7315 18.1813 9.9999 18.1813C9.11709 18.1813 8.19674 16.9536 7.61195 14.8893C8.38402 14.6607 9.19047 14.3582 10.0101 13.9807C10.4703 14.1902 10.93 14.3884 11.379 14.5534C11.4003 14.3671 11.4573 14.1924 11.546 14.0362C11.2569 13.9289 10.958 13.7919 10.6632 13.6646C11.0338 13.4784 11.4045 13.2828 11.7725 13.0699C12.1441 12.8552 12.502 12.63 12.8517 12.4009C12.815 12.7178 12.7849 13.0461 12.7357 13.3418C12.9241 13.3422 13.1037 13.3825 13.2666 13.4521C13.346 12.9897 13.402 12.4972 13.4484 11.9953C14.1804 11.4781 14.8467 10.936 15.4287 10.3824C15.679 10.6404 15.9142 10.8983 16.1225 11.1558C17.1061 12.3788 17.4573 13.4483 17.0857 14.0905C16.7395 14.6908 15.8546 14.8172 15.1756 14.8172C14.8397 14.8172 14.4716 14.7778 14.0892 14.7205C14.0873 14.9097 14.0466 15.0896 13.9732 15.2533C14.3968 15.3191 14.804 15.3624 15.1756 15.3624C16.3561 15.3624 17.1807 15.017 17.5574 14.3633C18.0555 13.5021 17.6955 12.2422 16.5469 10.8139C16.3286 10.5428 16.0796 10.2709 15.8164 10ZM12.8659 7.60844C12.5121 7.37576 12.1492 7.1473 11.7725 6.9299C11.4028 6.71609 11.0293 6.51945 10.6562 6.33176C11.2944 6.05729 11.9242 5.81441 12.5244 5.63625C12.6674 6.23693 12.7849 6.89533 12.8659 7.60844ZM9.99986 1.81824C10.8846 1.81824 11.8035 3.0468 12.3878 5.11043C11.6242 5.33547 10.8231 5.64643 10.0101 6.0191C9.19045 5.64135 8.384 5.33908 7.61193 5.11043C8.1967 3.0468 9.11707 1.81824 9.99986 1.81824ZM7.47639 5.6373C8.0843 5.81801 8.71662 6.04963 9.36311 6.3292C8.98387 6.51945 8.60461 6.71205 8.22725 6.92926C7.84693 7.14924 7.48551 7.37682 7.13488 7.60738C7.21635 6.89428 7.33234 6.23693 7.47639 5.6373ZM6.49539 8.71353C6.47162 9.13416 6.45465 9.5607 6.45465 10C6.45465 10.4393 6.47162 10.8678 6.49643 11.2877C5.91758 10.8593 5.40449 10.4261 4.95651 9.99896C5.40449 9.57303 5.91758 9.1418 6.49539 8.71353ZM4.82524 14.8173C4.1452 14.8173 3.26133 14.6908 2.9141 14.0905C2.47291 13.3265 3.07658 11.9169 4.56963 10.3793C5.14043 10.9238 5.80518 11.4668 6.54735 11.9919C6.63027 12.8968 6.76986 13.7423 6.95418 14.5101C6.17828 14.7078 5.45498 14.8173 4.82524 14.8173ZM7.47639 14.3625C7.33234 13.7626 7.21635 13.1046 7.1349 12.3924C7.48553 12.6236 7.84695 12.8505 8.22727 13.0699C8.60758 13.2901 8.9894 13.4771 9.37119 13.6672C8.72254 13.9485 8.08727 14.1813 7.47639 14.3625ZM11.5001 12.5977C11.0006 12.8857 10.4983 13.1437 9.99838 13.3817C9.48874 13.1408 8.98896 12.8795 8.50024 12.5986C7.98949 12.3037 7.51203 12.0008 7.06658 11.6945C7.02211 11.1308 6.99989 10.5655 6.99998 10C6.99998 9.41012 7.02397 8.84504 7.06658 8.30543C7.5326 7.9856 8.01084 7.68397 8.50024 7.40121C8.99955 7.11314 9.50055 6.85502 9.99986 6.61832C10.4992 6.85609 11.0013 7.11316 11.5001 7.40121C11.9994 7.68947 12.4779 7.99385 12.935 8.30734C12.9769 8.84695 12.9997 9.41096 12.9997 10C12.9997 10.5899 12.9758 11.1532 12.9331 11.6924C12.4676 12.013 11.9896 12.315 11.5001 12.5977ZM13.5044 8.71353C14.0669 9.13057 14.58 9.56283 15.04 10C14.5764 10.4393 14.0601 10.8737 13.4942 11.2928C13.519 10.8681 13.5451 10.4444 13.5451 10C13.5451 9.56072 13.5292 9.13416 13.5044 8.71353Z"
          fill="currentColor" stroke="currentColor" stroke-width="0.5"/>
</svg>
