<?xml version="1.0" standalone="no"?><!DOCTYPE svg PUBLIC "-//W3C//DTD SVG 1.1//EN" "http://www.w3.org/Graphics/SVG/1.1/DTD/svg11.dtd"><svg class="icon" width="200px" height="160.00px" viewBox="0 0 1280 1024" version="1.1" xmlns="http://www.w3.org/2000/svg"><path d="M1280 656.782222c0-178.062222-181.191111-322.844444-384.853333-322.844444-215.608889 0-385.422222 145.066667-385.422223 322.844444s170.666667 322.844444 385.422223 322.844445a581.688889 581.688889 0 0 0 135.964444-22.186667L1155.413333 1024l-34.133333-111.217778c91.022222-67.128889 158.72-155.875556 158.72-256z m-504.035556-49.493333a50.346667 50.346667 0 1 1 51.2-50.346667 50.915556 50.915556 0 0 1-51.2 50.346667z m249.173334 0a50.346667 50.346667 0 1 1 51.2-50.346667A50.915556 50.915556 0 0 1 1024 607.004444z" fill="#00C800" /><path d="M453.12 0C203.946667 0 0 166.684444 0 378.311111c0 122.311111 67.982222 222.435556 181.191111 300.373333l-45.226667 133.688889 158.435556-77.937777a791.893333 791.893333 0 0 0 158.72 22.186666c14.222222 0 28.444444 0 42.382222-1.706666a325.688889 325.688889 0 0 1-13.937778-93.297778c0-194.56 170.666667-352.142222 385.137778-352.142222A384.284444 384.284444 0 0 1 910.222222 312.888889C870.968889 133.12 675.84 0 453.12 0z m-152.177778 305.208889a60.586667 60.586667 0 1 1 61.724445-60.586667 61.155556 61.155556 0 0 1-61.724445 60.586667z m316.302222 0a60.586667 60.586667 0 1 1 61.724445-60.586667 61.155556 61.155556 0 0 1-61.724445 60.586667z" fill="#00C800" /></svg>